# xmcd
# 
# Track frame offsets:
#     150
#     15432
#     38600
#     53486
#     75810
#     87379
#     104019
#     118700
#     139849
#     153943
#     170954
#     187161
#     205906
#     221400
# 
# Disc length: 3190
# 
# Revision: 0
# Processed by: cddbd v1.5.2PL0 Copyright (c) Steve Scherf et al.
# Submitted via: fre:ac v1.0.27
# 
DISCID=b70c740e
DTITLE=Inkataki - The Best Music of the Andes
DYEAR=2004
DGENRE=World Music
TTITLE0=Lo Bueno Lo Malo y Lo Feo
TTITLE1=El Condor Pasa
TTITLE2=Humahuaqueno
TTITLE3=Alma Llanera
TTITLE4=Sinfonia No. 40
TTITLE5=Guadalquivir
TTITLE6=Pajaro Campana
TTITLE7=Chuclla
TTITLE8=Misionera
TTITLE9=Virgenes del Sol
TTITLE10=Pacay
TTITLE11=Las Palmeras
TTITLE12=Pajaro Chogui y Galopera
TTITLE13=Encuentros
EXTD=
EXTT0=
EXTT1=
EXTT2=
EXTT3=
EXTT4=
EXTT5=
EXTT6=
EXTT7=
EXTT8=
EXTT9=
EXTT10=
EXTT11=
EXTT12=
EXTT13=
PLAYORDER=
